<svg width="36" height="36" viewBox="0 0 36 36" fill="none" xmlns="http://www.w3.org/2000/svg">
<circle cx="18.0193" cy="17.9937" r="17.3141" fill="white"/>
<path fill-rule="evenodd" clip-rule="evenodd" d="M18.0193 35.3078C27.5816 35.3078 35.3334 27.556 35.3334 17.9937C35.3334 8.43135 27.5816 0.679565 18.0193 0.679565C8.45699 0.679565 0.7052 8.43135 0.7052 17.9937C0.7052 27.556 8.45699 35.3078 18.0193 35.3078ZM20.4927 16.7901H26.1749C27.0978 16.7901 27.8462 17.5384 27.8462 18.4613C27.8462 19.3843 27.0978 20.1326 26.1749 20.1326H20.4927C20.3081 20.1326 20.1584 20.2822 20.1584 20.4668V26.149C20.1584 27.072 19.4101 27.8203 18.4872 27.8203C17.5642 27.8203 16.8159 27.072 16.8159 26.149V20.4668C16.8159 20.2822 16.6663 20.1326 16.4817 20.1326H10.7994C9.87651 20.1326 9.1282 19.3843 9.1282 18.4613C9.1282 17.5384 9.87651 16.7901 10.7994 16.7901H16.4817C16.6663 16.7901 16.8159 16.6404 16.8159 16.4558V10.7736C16.8159 9.85065 17.5642 9.10234 18.4872 9.10234C19.4101 9.10234 20.1584 9.85065 20.1584 10.7736V16.4558C20.1584 16.6404 20.3081 16.7901 20.4927 16.7901Z" fill="#1B8036"/>
</svg>
