<svg width="10" height="10" viewBox="0 0 10 10" fill="none" xmlns="http://www.w3.org/2000/svg">
<g id="clock icon">
<path id="Vector" d="M5 0C2.24289 0 0 2.24289 0 5C0 7.75711 2.24289 10 5 10C7.75711 10 10 7.75711 10 5C10 2.24289 7.75711 0 5 0ZM7.37793 7.58621C7.29668 7.66747 7.19002 7.70836 7.08336 7.70836C6.9767 7.70836 6.86996 7.66747 6.78879 7.58621L4.70543 5.50293C4.62708 5.42503 4.58336 5.31914 4.58336 5.20836V2.5C4.58336 2.26959 4.76997 2.08336 5 2.08336C5.23003 2.08336 5.41664 2.26959 5.41664 2.5V5.03586L7.37793 6.99707C7.54082 7.16003 7.54082 7.42332 7.37793 7.58621Z" fill="#3D3D3D"/>
</g>
</svg>
