<svg width="10" height="10" viewBox="0 0 10 10" fill="none" xmlns="http://www.w3.org/2000/svg">
<g id="Comment icon">
<path id="Vector" d="M8.99902 8.57741C10.4734 6.87681 10.2925 4.31227 8.62902 2.82385C9.48343 5.81787 7.22414 8.80861 4.11138 8.80861C4.05146 8.80861 4.4131 8.81072 2.98865 8.80193C3.76773 9.57737 4.80539 10 5.88865 10C5.89146 10 9.70595 9.9805 9.7082 9.98048C9.96861 9.97923 10.0983 9.66231 9.91257 9.47897L8.99902 8.57741Z" fill="#3D3D3D"/>
<path id="Vector_2" d="M4.11115 8.22266C6.37802 8.22266 8.22226 6.37832 8.22226 4.11133C8.22226 1.84434 6.37804 0 4.11115 0C1.84425 0 5.51253e-05 1.84434 5.51253e-05 4.11133C5.51253e-05 5.10936 0.353336 6.05326 1.00078 6.80006L0.0872231 7.70162C-0.0979332 7.88438 0.0303285 8.20186 0.291618 8.20312C0.293629 8.20314 4.10916 8.22266 4.11115 8.22266ZM2.3632 2.65625H5.87863C6.04043 2.65625 6.17158 2.78742 6.17158 2.94922C6.17158 3.11102 6.04043 3.24219 5.87863 3.24219H2.3632C2.2014 3.24219 2.07025 3.11102 2.07025 2.94922C2.07025 2.78742 2.20142 2.65625 2.3632 2.65625ZM2.3632 3.82812H5.87863C6.04043 3.82812 6.17158 3.9593 6.17158 4.12109C6.17158 4.28289 6.04043 4.41406 5.87863 4.41406H2.3632C2.2014 4.41406 2.07025 4.28289 2.07025 4.12109C2.07025 3.9593 2.20142 3.82812 2.3632 3.82812ZM2.07025 5.29297C2.07025 5.13117 2.2014 5 2.3632 5H5.87863C6.04043 5 6.17158 5.13117 6.17158 5.29297C6.17158 5.45477 6.04043 5.58594 5.87863 5.58594H2.3632C2.20142 5.58594 2.07025 5.45477 2.07025 5.29297Z" fill="#3D3D3D"/>
</g>
</svg>
