<svg width="30" height="30" viewBox="0 0 30 30" fill="none" xmlns="http://www.w3.org/2000/svg">
<g clip-path="url(#clip0_515_1300)">
<path d="M30.0007 15C30.0007 6.71488 23.2859 0 15.0007 0C6.71561 0 0.000732422 6.71488 0.000732422 15C0.000732422 22.4883 5.48511 28.6934 12.657 29.8184V19.3359H8.84836V15H12.657V11.6953C12.657 7.9365 14.8953 5.85938 18.323 5.85938C19.9636 5.85938 21.6804 6.15234 21.6804 6.15234V9.84375H19.7879C17.9245 9.84375 17.3445 11.001 17.3445 12.1875V15H21.5046L20.8396 19.3359H17.3445V29.8184C24.5164 28.6934 30.0007 22.4883 30.0007 15Z" fill="#0C0C0C"/>
<path d="M20.8396 19.3359L21.5046 15H17.3445V12.1875C17.3445 11.001 17.9246 9.84375 19.7879 9.84375H21.6805V6.15234C21.6805 6.15234 19.9636 5.85938 18.323 5.85938C14.8953 5.85938 12.657 7.9365 12.657 11.6953V15H8.84839V19.3359H12.657V29.8184C13.4216 29.9385 14.2039 30 15.0008 30C15.7976 30 16.5799 29.9385 17.3445 29.8184V19.3359H20.8396Z" fill="white"/>
</g>
<defs>
<clipPath id="clip0_515_1300">
<rect width="30" height="30" fill="white" transform="translate(0.000732422)"/>
</clipPath>
</defs>
</svg>
