<svg width="30" height="30" viewBox="0 0 30 30" fill="none" xmlns="http://www.w3.org/2000/svg">
<g clip-path="url(#clip0_515_1303)">
<path d="M0.000732422 15C0.000732422 6.71575 6.71648 0 15.0007 0C23.285 0 30.0007 6.71575 30.0007 15C30.0007 23.2843 23.285 30 15.0007 30C6.71648 30 0.000732422 23.2843 0.000732422 15Z" fill="#0C0C0C"/>
<mask id="mask0_515_1303" style="mask-type:alpha" maskUnits="userSpaceOnUse" x="0" y="0" width="31" height="30">
<path fill-rule="evenodd" clip-rule="evenodd" d="M0.000732422 15C0.000732422 6.71575 6.71648 0 15.0007 0C23.285 0 30.0007 6.71575 30.0007 15C30.0007 23.2843 23.285 30 15.0007 30C6.71648 30 0.000732422 23.2843 0.000732422 15Z" fill="white"/>
</mask>
<g mask="url(#mask0_515_1303)">
<path fill-rule="evenodd" clip-rule="evenodd" d="M15.0017 7C12.829 7 12.5564 7.0095 11.703 7.04831C10.8514 7.08731 10.27 7.22212 9.76135 7.42C9.23516 7.62431 8.78885 7.89762 8.34416 8.3425C7.89916 8.78712 7.62579 9.2335 7.42079 9.7595C7.22248 10.2683 7.08748 10.8498 7.04916 11.7012C7.01098 12.5545 7.00098 12.8274 7.00098 15.0001C7.00098 17.1727 7.01066 17.4446 7.04929 18.2979C7.08848 19.1496 7.22329 19.7309 7.42098 20.2396C7.62548 20.7657 7.89879 21.2121 8.34366 21.6568C8.78816 22.1018 9.23448 22.3758 9.76035 22.5801C10.2694 22.7779 10.8509 22.9128 11.7024 22.9518C12.5557 22.9906 12.8282 23.0001 15.0007 23.0001C17.1736 23.0001 17.4454 22.9906 18.2987 22.9518C19.1504 22.9128 19.7324 22.7779 20.2414 22.5801C20.7675 22.3758 21.2131 22.1018 21.6576 21.6568C22.1026 21.2121 22.376 20.7657 22.581 20.2397C22.7777 19.7309 22.9127 19.1494 22.9527 18.2981C22.991 17.4447 23.001 17.1727 23.001 15.0001C23.001 12.8274 22.991 12.5547 22.9527 11.7014C22.9127 10.8497 22.7777 10.2683 22.581 9.75969C22.376 9.2335 22.1026 8.78712 21.6576 8.3425C21.2126 7.8975 20.7676 7.62412 20.2409 7.42C19.7309 7.22212 19.1493 7.08731 18.2976 7.04831C17.4442 7.0095 17.1726 7 14.9992 7H15.0017ZM14.7349 8.44156H14.7351L15.0017 8.44163C17.1377 8.44163 17.3909 8.44931 18.2344 8.48763C19.0144 8.52331 19.4378 8.65363 19.7198 8.76313C20.0931 8.90813 20.3593 9.0815 20.6391 9.3615C20.9191 9.6415 21.0925 9.90819 21.2378 10.2815C21.3473 10.5632 21.4778 10.9865 21.5133 11.7665C21.5516 12.6099 21.56 12.8632 21.56 14.9983C21.56 17.1333 21.5516 17.3866 21.5133 18.2299C21.4776 19.0099 21.3473 19.4332 21.2378 19.7149C21.0928 20.0882 20.9191 20.3541 20.6391 20.6339C20.3591 20.9139 20.0933 21.0873 19.7198 21.2323C19.4381 21.3423 19.0144 21.4723 18.2344 21.5079C17.3911 21.5463 17.1377 21.5546 15.0017 21.5546C12.8655 21.5546 12.6124 21.5463 11.769 21.5079C10.989 21.4719 10.5657 21.3416 10.2835 21.2321C9.91016 21.0871 9.64348 20.9137 9.36348 20.6337C9.08348 20.3537 8.91016 20.0878 8.76485 19.7143C8.65535 19.4326 8.52485 19.0093 8.48935 18.2292C8.45098 17.3859 8.44335 17.1326 8.44335 14.9962C8.44335 12.8599 8.45098 12.6079 8.48935 11.7645C8.52498 10.9845 8.65535 10.5612 8.76485 10.2792C8.90985 9.90581 9.08348 9.63919 9.36348 9.35919C9.64348 9.07919 9.91016 8.90581 10.2835 8.7605C10.5655 8.6505 10.989 8.5205 11.769 8.48463C12.507 8.45131 12.793 8.44131 14.284 8.43963V8.44163C14.4233 8.44144 14.5732 8.4415 14.7349 8.44156ZM18.3121 10.7297C18.3121 10.1995 18.7421 9.77 19.2721 9.77V9.76969C19.8021 9.76969 20.2321 10.1997 20.2321 10.7297C20.2321 11.2597 19.8021 11.6897 19.2721 11.6897C18.7421 11.6897 18.3121 11.2597 18.3121 10.7297ZM15.0015 10.8917C12.7328 10.8918 10.8934 12.7312 10.8934 15.0001C10.8934 17.2689 12.7329 19.1076 15.0017 19.1076C17.2706 19.1076 19.1094 17.2689 19.1094 15.0001C19.1094 12.7312 17.2704 10.8917 15.0015 10.8917ZM17.6684 15.0001C17.6684 13.5272 16.4744 12.3334 15.0017 12.3334C13.5289 12.3334 12.335 13.5272 12.335 15.0001C12.335 16.4727 13.5289 17.6667 15.0017 17.6667C16.4744 17.6667 17.6684 16.4727 17.6684 15.0001Z" fill="white"/>
</g>
</g>
<defs>
<clipPath id="clip0_515_1303">
<rect width="30" height="30" fill="white" transform="translate(0.000732422)"/>
</clipPath>
</defs>
</svg>
