<svg width="25" height="25" viewBox="0 0 25 25" fill="none" xmlns="http://www.w3.org/2000/svg">
<g id="Instagram 2">
<g id="Group">
<path id="Vector" fill-rule="evenodd" clip-rule="evenodd" d="M12.5008 5.83325C10.6902 5.83325 10.463 5.84117 9.75188 5.87351C9.04214 5.90601 8.55766 6.01836 8.13381 6.18325C7.69532 6.35351 7.32339 6.58127 6.95282 6.952C6.58199 7.32252 6.35417 7.6945 6.18334 8.13284C6.01808 8.55685 5.90558 9.04143 5.87365 9.75091C5.84183 10.462 5.8335 10.6894 5.8335 12.5C5.8335 14.3105 5.84157 14.5371 5.87376 15.2482C5.90641 15.9579 6.01876 16.4424 6.1835 16.8663C6.35391 17.3047 6.58167 17.6767 6.9524 18.0473C7.32282 18.4181 7.69475 18.6464 8.13297 18.8167C8.55714 18.9815 9.04172 19.0939 9.75131 19.1264C10.4625 19.1588 10.6895 19.1667 12.5 19.1667C14.3107 19.1667 14.5372 19.1588 15.2483 19.1264C15.958 19.0939 16.443 18.9815 16.8672 18.8167C17.3056 18.6464 17.6769 18.4181 18.0473 18.0473C18.4182 17.6767 18.646 17.3047 18.8168 16.8664C18.9807 16.4424 19.0932 15.9578 19.1266 15.2483C19.1585 14.5372 19.1668 14.3105 19.1668 12.5C19.1668 10.6894 19.1585 10.4622 19.1266 9.75106C19.0932 9.04132 18.9807 8.55685 18.8168 8.13299C18.646 7.6945 18.4182 7.32252 18.0473 6.952C17.6765 6.58117 17.3057 6.35336 16.8668 6.18325C16.4418 6.01836 15.9571 5.90601 15.2473 5.87351C14.5362 5.84117 14.3098 5.83325 12.4987 5.83325H12.5008ZM12.2784 7.03455H12.2786L12.5008 7.03461C14.2808 7.03461 14.4918 7.04101 15.1947 7.07294C15.8447 7.10268 16.1975 7.21127 16.4325 7.30252C16.7436 7.42336 16.9654 7.56784 17.1986 7.80117C17.4319 8.0345 17.5764 8.25674 17.6975 8.56783C17.7888 8.80257 17.8975 9.15534 17.9271 9.80534C17.959 10.5081 17.966 10.7192 17.966 12.4985C17.966 14.2776 17.959 14.4887 17.9271 15.1915C17.8973 15.8415 17.7888 16.1943 17.6975 16.429C17.5767 16.7401 17.4319 16.9617 17.1986 17.1949C16.9653 17.4282 16.7438 17.5727 16.4325 17.6935C16.1978 17.7852 15.8447 17.8935 15.1947 17.9232C14.4919 17.9552 14.2808 17.9621 12.5008 17.9621C10.7206 17.9621 10.5096 17.9552 9.80688 17.9232C9.15688 17.8932 8.80407 17.7846 8.56896 17.6934C8.25782 17.5725 8.03558 17.428 7.80225 17.1947C7.56891 16.9614 7.42449 16.7397 7.30339 16.4285C7.21214 16.1938 7.10339 15.841 7.07381 15.191C7.04183 14.4882 7.03548 14.2771 7.03548 12.4968C7.03548 10.7165 7.04183 10.5065 7.07381 9.80367C7.1035 9.15367 7.21214 8.80091 7.30339 8.56591C7.42422 8.25476 7.56891 8.03257 7.80225 7.79924C8.03558 7.56591 8.25782 7.42143 8.56896 7.30034C8.80396 7.20867 9.15688 7.10034 9.80688 7.07044C10.4219 7.04268 10.6602 7.03435 11.9027 7.03294V7.03461C12.0188 7.03445 12.1437 7.0345 12.2784 7.03455ZM15.2594 8.94132C15.2594 8.4995 15.6178 8.14159 16.0594 8.14159V8.14132C16.5011 8.14132 16.8594 8.49966 16.8594 8.94132C16.8594 9.38299 16.5011 9.74132 16.0594 9.74132C15.6178 9.74132 15.2594 9.38299 15.2594 8.94132ZM12.5006 9.07632C10.61 9.07638 9.07714 10.6093 9.07714 12.5C9.07714 14.3907 10.6101 15.9229 12.5008 15.9229C14.3915 15.9229 15.9239 14.3907 15.9239 12.5C15.9239 10.6092 14.3914 9.07632 12.5006 9.07632ZM14.723 12.5C14.723 11.2726 13.728 10.2777 12.5008 10.2777C11.2734 10.2777 10.2785 11.2726 10.2785 12.5C10.2785 13.7272 11.2734 14.7222 12.5008 14.7222C13.728 14.7222 14.723 13.7272 14.723 12.5Z" fill="white"/>
</g>
</g>
</svg>
