<svg width="30" height="30" viewBox="0 0 30 30" fill="none" xmlns="http://www.w3.org/2000/svg">
<g clip-path="url(#clip0_515_1309)">
<path d="M0.000732422 15C0.000732422 6.71575 6.71648 0 15.0007 0C23.285 0 30.0007 6.71575 30.0007 15C30.0007 23.2843 23.285 30 15.0007 30C6.71648 30 0.000732422 23.2843 0.000732422 15Z" fill="#0C0C0C"/>
<path fill-rule="evenodd" clip-rule="evenodd" d="M10.8252 9.26419C10.8252 10.2449 10.087 11.0296 8.90173 11.0296H8.87998C7.73879 11.0296 7.00098 10.2449 7.00098 9.26419C7.00098 8.26275 7.76123 7.5 8.9241 7.5C10.087 7.5 10.8032 8.26275 10.8252 9.26419ZM10.6013 12.4236V22.6373H7.20198V12.4236H10.6013ZM22.8605 22.6373L22.8606 16.7811C22.8606 13.6439 21.1836 12.1838 18.9467 12.1838C17.1419 12.1838 16.3338 13.1751 15.8827 13.8706V12.4239H12.4829C12.5277 13.3823 12.4829 22.6375 12.4829 22.6375H15.8827V16.9334C15.8827 16.6281 15.9047 16.3236 15.9946 16.1051C16.2403 15.4953 16.7997 14.8639 17.7388 14.8639C18.9694 14.8639 19.4613 15.8004 19.4613 17.1729V22.6373H22.8605Z" fill="white"/>
</g>
<defs>
<clipPath id="clip0_515_1309">
<rect width="30" height="30" fill="white" transform="translate(0.000732422)"/>
</clipPath>
</defs>
</svg>
