<svg width="25" height="25" viewBox="0 0 25 25" fill="none" xmlns="http://www.w3.org/2000/svg">
<g id="LinkedIN 1">
<path id="Vector" fill-rule="evenodd" clip-rule="evenodd" d="M9.02037 7.72016C9.02037 8.5374 8.40516 9.1913 7.41745 9.1913H7.39933C6.44834 9.1913 5.8335 8.5374 5.8335 7.72016C5.8335 6.88562 6.46704 6.25 7.4361 6.25C8.40516 6.25 9.00199 6.88562 9.02037 7.72016ZM8.83376 10.353V18.8644H6.001V10.353H8.83376ZM19.0497 18.8644L19.0499 13.9842C19.0499 11.3699 17.6523 10.1532 15.7882 10.1532C14.2842 10.1532 13.6108 10.9793 13.2349 11.5588V10.3533H10.4018C10.4391 11.1519 10.4018 18.8646 10.4018 18.8646H13.2349V14.1111C13.2349 13.8568 13.2533 13.603 13.3282 13.4209C13.5329 12.9127 13.9991 12.3866 14.7817 12.3866C15.8071 12.3866 16.2171 13.167 16.2171 14.3108V18.8644H19.0497Z" fill="white"/>
</g>
</svg>
