<svg width="12" height="12" viewBox="0 0 12 12" fill="none" xmlns="http://www.w3.org/2000/svg">
<g id="publisher icon">
<g id="Group">
<g id="Group_2">
<path id="Vector" d="M6 0C4.25534 0 2.83594 1.4194 2.83594 3.16406C2.83594 4.90873 4.25534 6.32812 6 6.32812C7.74466 6.32812 9.16406 4.90873 9.16406 3.16406C9.16406 1.4194 7.74466 0 6 0Z" fill="#696969"/>
</g>
</g>
<g id="Group_3">
<g id="Group_4">
<path id="Vector_2" d="M9.9367 8.3952C9.07045 7.51563 7.92209 7.03125 6.70312 7.03125H5.29688C4.07794 7.03125 2.92955 7.51563 2.0633 8.3952C1.20129 9.27045 0.726562 10.4258 0.726562 11.6484C0.726562 11.8426 0.883969 12 1.07812 12H10.9219C11.116 12 11.2734 11.8426 11.2734 11.6484C11.2734 10.4258 10.7987 9.27045 9.9367 8.3952Z" fill="#696969"/>
</g>
</g>
</g>
</svg>
