<svg width="100" height="100" viewBox="0 0 100 100" fill="none" xmlns="http://www.w3.org/2000/svg">
<g clip-path="url(#clip0_515_1322)">
<path d="M100.001 50V50.1251C99.9984 50.9392 99.9771 51.7479 99.9366 52.5505C99.9344 52.6054 99.9321 52.6604 99.9283 52.7145C99.8504 54.1656 99.7116 55.6 99.5125 57.0137C96.2349 80.3612 76.8326 98.5352 52.9281 99.9138C51.96 99.971 50.9834 100 50.0007 100C49.5361 100 49.0753 99.9939 48.6137 99.9802C48.13 99.9664 47.6494 99.9474 47.1687 99.9199C46.9322 99.9084 46.6957 99.8924 46.4599 99.8772C45.2133 99.7894 43.9811 99.6559 42.7627 99.4781C42.4049 99.4255 42.0479 99.3713 41.6938 99.3103C41.69 99.3103 41.6885 99.3088 41.6847 99.3088C41.6786 99.3065 41.6725 99.3065 41.6664 99.3065C41.4535 99.2699 41.2407 99.2325 41.0301 99.1936C40.6921 99.1325 40.3564 99.0685 40.02 98.9998C17.1882 94.3771 0.000732422 74.1951 0.000732422 50C0.000732422 22.3869 22.3877 0 50.0007 0C72.837 0 92.0967 15.3084 98.0789 36.2244C98.5634 37.9158 98.9601 39.6423 99.2645 41.4024C99.4613 42.5468 99.6216 43.705 99.7413 44.8753C99.7467 44.9417 99.7543 45.0058 99.7604 45.0722C99.839 45.8649 99.897 46.666 99.9382 47.4709C99.9794 48.3086 100.001 49.1524 100.001 50Z" fill="#5C6B99"/>
<path d="M100.001 50.125C99.9984 50.9391 99.9771 51.7478 99.9366 52.5504C99.9344 52.6053 99.9321 52.6602 99.9283 52.7144C99.8504 54.1655 99.7116 55.5999 99.5125 57.0136C96.2349 80.3611 76.8326 98.535 52.9281 99.9137C51.96 99.9709 50.9834 99.9999 50.0007 99.9999C49.5361 99.9999 49.0753 99.9938 48.6137 99.98C48.13 99.9663 47.6494 99.9472 47.1687 99.9198L25.5867 78.3904L71.4851 21.6094L100.001 50.125Z" fill="#455373"/>
<path d="M25.5867 49.0938H74.4148V78.3906H25.5867V49.0938Z" fill="#D4B93F"/>
<path d="M50.0007 49.0938H74.4148V78.3906H50.0007V49.0938Z" fill="#CC9202"/>
<path d="M28.5164 21.6094H71.4851V72.3906H28.5164V21.6094Z" fill="white"/>
<path d="M50.0007 21.6094H71.4851V72.3906H50.0007V21.6094Z" fill="#EBEBEB"/>
<path d="M35.3523 47.3906H64.6492V52.2734H35.3523V47.3906Z" fill="#C0DAFB"/>
<path d="M35.3523 38.6016H64.6492V43.4844H35.3523V38.6016Z" fill="#C0DAFB"/>
<path d="M50.0007 47.3906H64.6492V52.2734H50.0007V47.3906Z" fill="#A0B9D8"/>
<path d="M50.0007 38.6016H64.6492V43.4844H50.0007V38.6016Z" fill="#A0B9D8"/>
<path d="M50.0007 63.7422L25.5867 49.0938V78.3906H74.4148V49.0938L50.0007 63.7422Z" fill="#FFDF4C"/>
<path d="M50.0007 63.7422V78.3906H74.4148V49.0938L50.0007 63.7422Z" fill="#D4B93F"/>
<path d="M41.2285 34.4386H39.7408L36.8447 29.6878V34.4386H35.3569V27.2181H36.8447L39.7461 31.9789V27.2181H41.2285V34.4386Z" fill="#FF6680"/>
<path d="M47.6342 31.3094H44.7778V33.2435H48.1301V34.4382H43.29V27.2178H48.1194V28.4232H44.7778V30.1444H47.6342V31.3094Z" fill="#FF6680"/>
<path d="M55.3878 32.3563L56.3598 27.2186H57.843L56.2408 34.4391H54.7431L53.5682 29.6089L52.3925 34.4391H50.8949L49.2935 27.2186H50.7758L51.7532 32.3463L52.9434 27.2186H54.203L55.3878 32.3563Z" fill="#FF6680"/>
<path d="M63.1516 32.5448C63.1516 32.2632 63.0524 32.0481 62.854 31.897C62.6564 31.7467 62.2986 31.588 61.7829 31.421C61.2679 31.2539 60.8589 31.0898 60.5583 30.9281C59.7382 30.4848 59.3285 29.8882 59.3285 29.1375C59.3285 28.7476 59.4384 28.3997 59.6581 28.0938C59.8778 27.7878 60.1937 27.549 60.6057 27.3774C61.0169 27.205 61.4792 27.1195 61.9919 27.1195C62.5077 27.1195 62.9669 27.2126 63.3705 27.3995C63.7734 27.5864 64.0869 27.8504 64.3105 28.1907C64.5333 28.5309 64.6447 28.9178 64.6447 29.3511H63.1569C63.1569 29.0208 63.0532 28.7629 62.8449 28.5798C62.6366 28.3967 62.3436 28.3044 61.9667 28.3044C61.6036 28.3044 61.3205 28.3814 61.1191 28.5355C60.9169 28.6889 60.8162 28.8918 60.8162 29.1428C60.8162 29.377 60.9345 29.5739 61.171 29.7326C61.4075 29.8913 61.7554 30.04 62.2147 30.1789C63.0608 30.4337 63.678 30.7496 64.0648 31.1265C64.4516 31.5034 64.6447 31.9726 64.6447 32.5349C64.6447 33.1597 64.4089 33.6495 63.9359 34.005C63.4629 34.3606 62.8266 34.5383 62.0262 34.5383C61.4708 34.5383 60.965 34.4361 60.5088 34.2332C60.0525 34.0294 59.7046 33.751 59.4651 33.397C59.2255 33.0437 59.1057 32.634 59.1057 32.1671H60.598C60.598 32.9644 61.0741 33.3626 62.0262 33.3626C62.3802 33.3626 62.6564 33.2909 62.8548 33.1467C63.0532 33.0033 63.1516 32.8026 63.1516 32.5448Z" fill="#D14960"/>
<path d="M56.3598 27.2188L55.3878 32.3564L54.2022 27.2188H52.9426L51.7524 32.3465L50.7759 27.2188H50.0007V30.4086L50.8949 34.4392H52.3925L53.5675 29.609L54.7432 34.4392H56.2408L57.8422 27.2188H56.3598Z" fill="#D14960"/>
</g>
<defs>
<clipPath id="clip0_515_1322">
<rect width="100" height="100" fill="white" transform="translate(0.000732422)"/>
</clipPath>
</defs>
</svg>
