<svg width="30" height="30" viewBox="0 0 30 30" fill="none" xmlns="http://www.w3.org/2000/svg">
<g clip-path="url(#clip0_515_1297)">
<path d="M0.000732422 15C0.000732422 6.71575 6.71648 0 15.0007 0C23.285 0 30.0007 6.71575 30.0007 15C30.0007 23.2843 23.285 30 15.0007 30C6.71648 30 0.000732422 23.2843 0.000732422 15Z" fill="#0C0C0C"/>
<path d="M14.5515 12.1922L14.583 12.7112L14.0584 12.6477C12.1488 12.4041 10.4805 11.5778 9.06404 10.1902L8.37161 9.50168L8.19323 10.0101C7.81548 11.1436 8.05679 12.3405 8.84373 13.1455C9.26342 13.5904 9.16898 13.654 8.44504 13.3892C8.19323 13.3044 7.97286 13.2409 7.95192 13.2726C7.87848 13.3468 8.13029 14.3107 8.32961 14.6921C8.60242 15.2217 9.15848 15.7407 9.76704 16.0479L10.2812 16.2915L9.67261 16.3021C9.08505 16.3021 9.06405 16.3127 9.12705 16.5351C9.33686 17.2236 10.1657 17.9546 11.089 18.2723L11.7396 18.4947L11.173 18.8337C10.3336 19.321 9.34736 19.5964 8.36111 19.6176C7.88892 19.6282 7.50073 19.6705 7.50073 19.7023C7.50073 19.8082 8.78079 20.4014 9.52573 20.6344C11.7605 21.3229 14.4151 21.0264 16.4086 19.8506C17.825 19.0138 19.2415 17.3507 19.9025 15.7407C20.2592 14.8827 20.616 13.315 20.616 12.5629C20.616 12.0757 20.6474 12.0121 21.235 11.4296C21.5812 11.0906 21.9065 10.7198 21.9695 10.6139C22.0744 10.4127 22.0639 10.4127 21.5288 10.5927C20.637 10.9105 20.511 10.8681 20.9517 10.3915C21.277 10.0525 21.6652 9.43812 21.6652 9.25806C21.6652 9.22631 21.5078 9.27924 21.3294 9.37456C21.1406 9.48049 20.7209 9.63937 20.4061 9.73474L19.8395 9.91481L19.3254 9.56524C19.0422 9.37456 18.6434 9.16274 18.4336 9.09918C17.8985 8.95087 17.0801 8.97206 16.5975 9.14156C15.2859 9.61824 14.457 10.8469 14.5515 12.1922Z" fill="white"/>
</g>
<defs>
<clipPath id="clip0_515_1297">
<rect width="30" height="30" fill="white" transform="translate(0.000732422)"/>
</clipPath>
</defs>
</svg>
