<svg width="27" height="27" viewBox="0 0 27 27" fill="none" xmlns="http://www.w3.org/2000/svg">
<g id="Twitter 2">
<path id="Vector" d="M13.0957 10.9731L13.124 11.4402L12.6519 11.383C10.9333 11.1637 9.43183 10.4201 8.15698 9.17126L7.53379 8.55161L7.37325 9.0092C7.03327 10.0293 7.25046 11.1065 7.9587 11.831C8.33642 12.2315 8.25142 12.2887 7.59988 12.0504C7.37325 11.9741 7.17491 11.9169 7.15607 11.9455C7.08998 12.0122 7.31661 12.8797 7.49599 13.2229C7.74152 13.6996 8.24197 14.1667 8.78968 14.4432L9.25239 14.6624L8.70469 14.672C8.17588 14.672 8.15698 14.6815 8.21368 14.8817C8.40251 15.5014 9.1485 16.1592 9.97948 16.4452L10.565 16.6454L10.055 16.9504C9.29959 17.389 8.41196 17.6368 7.52434 17.6559C7.09937 17.6655 6.75 17.7035 6.75 17.7322C6.75 17.8275 7.90206 18.3614 8.5725 18.5711C10.5838 19.1907 12.9729 18.9238 14.7671 17.8657C16.0419 17.1125 17.3167 15.6158 17.9116 14.1667C18.2327 13.3945 18.5537 11.9836 18.5537 11.3067C18.5537 10.8682 18.582 10.811 19.1108 10.2867C19.4225 9.9816 19.7152 9.64792 19.7719 9.55264C19.8663 9.37151 19.8569 9.37151 19.3753 9.53357C18.5726 9.81954 18.4593 9.7814 18.8559 9.35244C19.1486 9.04734 19.498 8.4944 19.498 8.33235C19.498 8.30377 19.3564 8.35142 19.1958 8.4372C19.0259 8.53254 18.6482 8.67553 18.3648 8.76137L17.8549 8.92342L17.3922 8.60882C17.1373 8.4372 16.7784 8.24657 16.5896 8.18936C16.108 8.05588 15.3714 8.07495 14.9371 8.2275C13.7567 8.65652 13.0107 9.76234 13.0957 10.9731Z" fill="white"/>
</g>
</svg>
