<svg width="68" height="68" viewBox="0 0 68 68" fill="none" xmlns="http://www.w3.org/2000/svg">
<circle cx="34" cy="31" r="25" fill="#4AB566"/>
<g filter="url(#filter0_d_515_1351)">
<mask id="path-2-inside-1_515_1351" fill="white">
<path fill-rule="evenodd" clip-rule="evenodd" d="M64 30C64 13.4315 50.5685 0 34 0C17.4315 0 4 13.4315 4 30C4 46.5685 17.4315 60 34 60C50.5685 60 64 46.5685 64 30ZM34.9375 40.3125C34.9375 40.83 34.5175 41.25 34 41.25C33.4825 41.25 33.0625 40.83 33.0625 40.3125V21.5798L26.2412 28.7714C25.884 29.1464 25.2906 29.1614 24.9161 28.8038C24.5415 28.4466 24.5265 27.8536 24.8837 27.4786L32.6584 19.3158C33.0282 18.945 33.4993 18.75 34 18.75C34.5011 18.75 34.9717 18.945 35.3261 19.2994L43.1167 27.4786C43.4739 27.8536 43.4593 28.4466 43.0843 28.8038C42.7084 29.1614 42.1154 29.1459 41.7587 28.7714L34.9375 21.6098V40.3125Z"/>
</mask>
<path fill-rule="evenodd" clip-rule="evenodd" d="M64 30C64 13.4315 50.5685 0 34 0C17.4315 0 4 13.4315 4 30C4 46.5685 17.4315 60 34 60C50.5685 60 64 46.5685 64 30ZM34.9375 40.3125C34.9375 40.83 34.5175 41.25 34 41.25C33.4825 41.25 33.0625 40.83 33.0625 40.3125V21.5798L26.2412 28.7714C25.884 29.1464 25.2906 29.1614 24.9161 28.8038C24.5415 28.4466 24.5265 27.8536 24.8837 27.4786L32.6584 19.3158C33.0282 18.945 33.4993 18.75 34 18.75C34.5011 18.75 34.9717 18.945 35.3261 19.2994L43.1167 27.4786C43.4739 27.8536 43.4593 28.4466 43.0843 28.8038C42.7084 29.1614 42.1154 29.1459 41.7587 28.7714L34.9375 21.6098V40.3125Z" fill="white"/>
<path d="M33.0625 21.5798H33.1625V21.3291L32.9899 21.511L33.0625 21.5798ZM26.2412 28.7714L26.3136 28.8404L26.3138 28.8402L26.2412 28.7714ZM24.9161 28.8038L24.9851 28.7314L24.9851 28.7314L24.9161 28.8038ZM24.8837 27.4786L24.9561 27.5476H24.9561L24.8837 27.4786ZM32.6584 19.3158L32.5876 19.2451L32.586 19.2468L32.6584 19.3158ZM35.3261 19.2994L35.3985 19.2304L35.3968 19.2287L35.3261 19.2994ZM43.1167 27.4786L43.0443 27.5476L43.1167 27.4786ZM43.0843 28.8038L43.1533 28.8762L43.1533 28.8762L43.0843 28.8038ZM41.7587 28.7714L41.8311 28.7024V28.7024L41.7587 28.7714ZM34.9375 21.6098L35.0099 21.5409L34.8375 21.3599V21.6098H34.9375ZM34 0.0999985C50.5133 0.0999985 63.9 13.4867 63.9 30H64.1C64.1 13.3762 50.6238 -0.0999985 34 -0.0999985V0.0999985ZM4.1 30C4.1 13.4867 17.4867 0.0999985 34 0.0999985V-0.0999985C17.3762 -0.0999985 3.9 13.3762 3.9 30H4.1ZM34 59.9C17.4867 59.9 4.1 46.5133 4.1 30H3.9C3.9 46.6238 17.3762 60.1 34 60.1V59.9ZM63.9 30C63.9 46.5133 50.5133 59.9 34 59.9V60.1C50.6238 60.1 64.1 46.6238 64.1 30H63.9ZM34 41.35C34.5727 41.35 35.0375 40.8852 35.0375 40.3125H34.8375C34.8375 40.7748 34.4622 41.15 34 41.15V41.35ZM32.9625 40.3125C32.9625 40.8852 33.4272 41.35 34 41.35V41.15C33.5377 41.15 33.1625 40.7748 33.1625 40.3125H32.9625ZM32.9625 21.5798V40.3125H33.1625V21.5798H32.9625ZM26.3138 28.8402L33.135 21.6487L32.9899 21.511L26.1687 28.7026L26.3138 28.8402ZM24.847 28.8761C25.2616 29.272 25.9184 29.2553 26.3136 28.8404L26.1688 28.7024C25.8496 29.0375 25.3195 29.0508 24.9851 28.7314L24.847 28.8761ZM24.8113 27.4096C24.4159 27.8247 24.4326 28.4809 24.847 28.8761L24.9851 28.7314C24.6504 28.4122 24.6371 27.8825 24.9561 27.5476L24.8113 27.4096ZM32.586 19.2468L24.8113 27.4096L24.9561 27.5476L32.7308 19.3848L32.586 19.2468ZM34 18.65C33.4722 18.65 32.9758 18.856 32.5876 19.2452L32.7292 19.3864C33.0807 19.034 33.5265 18.85 34 18.85V18.65ZM35.3968 19.2287C35.0236 18.8555 34.5276 18.65 34 18.65V18.85C34.4745 18.85 34.9197 19.0345 35.2553 19.3701L35.3968 19.2287ZM43.1891 27.4096L35.3985 19.2304L35.2536 19.3683L43.0443 27.5476L43.1891 27.4096ZM43.1533 28.8762C43.5683 28.4809 43.5844 27.8246 43.1891 27.4096L43.0443 27.5476C43.3633 27.8826 43.3504 28.4122 43.0154 28.7313L43.1533 28.8762ZM41.6863 28.8404C42.0811 29.2548 42.7373 29.2719 43.1533 28.8762L43.0154 28.7313C42.6795 29.0509 42.1498 29.037 41.8311 28.7024L41.6863 28.8404ZM34.865 21.6788L41.6863 28.8404L41.8311 28.7024L35.0099 21.5409L34.865 21.6788ZM35.0375 40.3125V21.6098H34.8375V40.3125H35.0375Z" fill="black" fill-opacity="0.5" mask="url(#path-2-inside-1_515_1351)"/>
</g>
<defs>
<filter id="filter0_d_515_1351" x="0" y="0" width="68" height="68" filterUnits="userSpaceOnUse" color-interpolation-filters="sRGB">
<feFlood flood-opacity="0" result="BackgroundImageFix"/>
<feColorMatrix in="SourceAlpha" type="matrix" values="0 0 0 0 0 0 0 0 0 0 0 0 0 0 0 0 0 0 127 0" result="hardAlpha"/>
<feOffset dy="4"/>
<feGaussianBlur stdDeviation="2"/>
<feColorMatrix type="matrix" values="0 0 0 0 0 0 0 0 0 0 0 0 0 0 0 0 0 0 0.25 0"/>
<feBlend mode="normal" in2="BackgroundImageFix" result="effect1_dropShadow_515_1351"/>
<feBlend mode="normal" in="SourceGraphic" in2="effect1_dropShadow_515_1351" result="shape"/>
</filter>
</defs>
</svg>
