<svg width="256" height="260" viewBox="0 0 256 260" fill="none" xmlns="http://www.w3.org/2000/svg">
<g filter="url(#filter0_d_515_1222)">
<path fill-rule="evenodd" clip-rule="evenodd" d="M83.5 0.687378C72.1653 2.95928 60 18.6874 60 18.6874C60 18.6874 58.9712 37.3549 54.5 48.1873C50.5334 57.7972 43.512 62.6633 36.4389 67.5652C29.6044 72.3017 22.7216 77.0717 18.5 86.1873C13.3454 97.3175 10.8803 104.422 11 116.687C11.2023 137.407 21.7916 148.835 34.977 163.063C37.0951 165.349 39.2802 167.707 41.5 170.187C43.5461 172.474 45.5134 174.725 47.4333 176.922C62.2899 193.924 74.3057 207.675 98 209.187C115.881 210.328 127.316 206.455 142 196.187C152.771 188.656 156.225 178.88 159.853 168.612C162.723 160.488 165.702 152.057 172.5 144.187C178.859 136.826 185.964 132.731 192.842 128.768C201.36 123.859 209.529 119.152 215.5 108.687C216.185 107.486 216.858 106.338 217.508 105.226C222.199 97.21 225.752 91.138 225 81.1873C223.849 65.9536 213.243 59.0721 200.828 51.0174C199.405 50.0942 197.959 49.1557 196.5 48.1873C187.928 42.4977 179.969 41.4175 171.745 40.3016C164.854 39.3664 157.778 38.4061 150 34.6873C132.552 26.3449 109.5 6.18735 109.5 6.18735C109.5 6.18735 93.6759 -1.35227 83.5 0.687378Z" fill="#52FA43"/>
</g>
<defs>
<filter id="filter0_d_515_1222" x="0.99585" y="0.33728" width="254.105" height="259.043" filterUnits="userSpaceOnUse" color-interpolation-filters="sRGB">
<feFlood flood-opacity="0" result="BackgroundImageFix"/>
<feColorMatrix in="SourceAlpha" type="matrix" values="0 0 0 0 0 0 0 0 0 0 0 0 0 0 0 0 0 0 127 0" result="hardAlpha"/>
<feOffset dx="10" dy="30"/>
<feGaussianBlur stdDeviation="10"/>
<feColorMatrix type="matrix" values="0 0 0 0 0.321569 0 0 0 0 0.980392 0 0 0 0 0.262745 0 0 0 0.35 0"/>
<feBlend mode="normal" in2="BackgroundImageFix" result="effect1_dropShadow_515_1222"/>
<feBlend mode="normal" in="SourceGraphic" in2="effect1_dropShadow_515_1222" result="shape"/>
</filter>
</defs>
</svg>
